export default <svg t="1678364816385" class="icon" viewBox="0 0 1024 1024" version="1.1" xmlns="http://www.w3.org/2000/svg" p-id="2373" width="200" height="200"><path d="M755.2 857.6H262.4c-54.4 0-98.5-44.1-98.5-98.6V512.7h49.3v-312c0-27.2 22.1-49.3 49.3-49.3h492.7c27.2 0 49.3 22.1 49.3 49.3v312h49.3v246.4c-0.1 54.4-44.2 98.5-98.6 98.5z m0-656.9H262.4v312h147.8v98.6h197.1v-98.6h147.8v-312zM804.4 562H656.6v49.3c0 27.2-22.1 49.3-49.3 49.3H410.2c-27.2 0-49.3-22.1-49.3-49.3V562H213.1v197.1c0 27.2 22.1 49.3 49.3 49.3h492.7c27.2 0 49.3-22.1 49.3-49.3V562z m0 0" fill="" p-id="2374"></path><path d="M656.8 330.2H361.2c-13.6 0-24.6-11-24.6-24.6 0-13.6 11-24.6 24.6-24.6h295.6c13.6 0 24.6 11 24.6 24.6 0.1 13.6-10.9 24.6-24.6 24.6z m0 0M484.4 445.3H361.2c-13.6 0-24.6-11-24.6-24.6s11-24.6 24.6-24.6h123.2c13.6 0 24.6 11 24.6 24.6s-11 24.6-24.6 24.6z m0 0" fill="" p-id="2375"></path></svg>